<svg width="257" height="202" viewBox="0 0 257 202" fill="none" xmlns="http://www.w3.org/2000/svg">
<path fill-rule="evenodd" clip-rule="evenodd" d="M177 1.99999C177 0.895425 177.895 0 179 0H197C198.105 0 199 0.895431 199 2V29.0199C199.055 29.003 199.111 28.9883 199.168 28.9759L216.758 25.1578C217.838 24.9235 218.903 25.6086 219.137 26.6881L256.044 196.723L236.34 201H257V202H0V201H9V77C9 75.8954 9.89543 75 11 75H29C29.3643 75 29.7058 75.0974 30 75.2676V43C30 41.8954 30.8954 41 32 41H50C51.1046 41 52 41.8954 52 43V57.2676C52.2942 57.0974 52.6357 57 53 57H71C71.5973 57 72.1335 57.2619 72.5 57.6771C72.8665 57.2619 73.4027 57 74 57H92C92.3643 57 92.7058 57.0974 93 57.2676V43C93 41.8954 93.8954 41 95 41H113C113.597 41 114.134 41.2619 114.5 41.6771C114.866 41.2619 115.403 41 116 41H134C134.364 41 134.706 41.0974 135 41.2676V31C135 29.8954 135.895 29 137 29H155C156.105 29 157 29.8954 157 31V41.2676C157.294 41.0974 157.636 41 158 41H176C176.364 41 176.706 41.0974 177 41.2676V1.99999ZM234.46 201L199 37.6309V201H234.46Z" fill="white"/>
</svg>
